<?xml version="1.0" encoding="UTF-8"?>
<svg viewBox="0 0 100 100" xmlns="http://www.w3.org/2000/svg">
    <defs>
        <radialGradient id="grad1" cx="50%" cy="50%" r="50%">
            <stop offset="0%" style="stop-color:#0066ff;stop-opacity:1" />
            <stop offset="100%" style="stop-color:#00d4ff;stop-opacity:0.3" />
        </radialGradient>
    </defs>
    <rect width="100" height="100" rx="15" fill="#071221"/>
    <circle cx="50" cy="50" r="45" fill="none" stroke="url(#grad1)" stroke-width="2" opacity="0.6"/>
    <circle cx="50" cy="50" r="35" fill="none" stroke="#0066ff" stroke-width="1.5" opacity="0.4"/>
    <circle cx="50" cy="50" r="28" fill="none" stroke="#00d4ff" stroke-width="1" opacity="0.3"/>
    <circle cx="50" cy="50" r="20" fill="none" stroke="#0066ff" stroke-width="2"/>
    <line x1="50" y1="30" x2="50" y2="50" stroke="#0066ff" stroke-width="1.5"/>
    <line x1="70" y1="50" x2="50" y2="50" stroke="#0066ff" stroke-width="1.5"/>
    <line x1="50" y1="70" x2="50" y2="50" stroke="#0066ff" stroke-width="1.5"/>
    <line x1="30" y1="50" x2="50" y2="50" stroke="#0066ff" stroke-width="1.5"/>
    <circle cx="35" cy="35" r="2.5" fill="#00d4ff"/>
    <circle cx="65" cy="35" r="2.5" fill="#00d4ff"/>
    <circle cx="65" cy="65" r="2.5" fill="#00d4ff"/>
    <circle cx="35" cy="65" r="2.5" fill="#00d4ff"/>
    <path d="M 35 35 L 65 35 L 65 65 L 35 65 Z" fill="none" stroke="#00d4ff" stroke-width="0.8" opacity="0.5"/>
    <path d="M 42 50 L 48 56 L 58 46" stroke="#10b981" stroke-width="2" fill="none" stroke-linecap="round" stroke-linejoin="round"/>
</svg>